<svg width="549" height="62" viewBox="0 0 549 62" fill="none" xmlns="http://www.w3.org/2000/svg">
<path d="M186.889 55.37H158.704V7.76365C158.704 6.98365 158.432 6.34404 157.865 5.80844C157.288 5.25724 156.648 4.99203 155.908 4.99203C155.169 4.99203 154.576 5.26244 154.036 5.82404C153.48 6.39604 153.212 7.03045 153.212 7.76365V56.5348C153.212 57.7308 153.606 58.7032 154.424 59.5092C155.237 60.3152 156.218 60.7104 157.424 60.7104H186.883C187.681 60.7104 188.294 60.466 188.803 59.9304C189.323 59.3896 189.574 58.7708 189.574 58.0376C189.574 57.2472 189.328 56.618 188.819 56.1188C188.31 55.6092 187.675 55.37 186.878 55.37" fill="#FA7F00"/>
<path d="M390.516 4.99203C389.797 4.99203 389.184 5.26244 388.643 5.82404C388.087 6.39604 387.82 7.03045 387.82 7.76365V58.4432C387.82 59.166 388.082 59.7796 388.622 60.3152C389.761 61.4488 391.465 61.35 392.504 60.3152C393.044 59.7796 393.312 59.166 393.312 58.4432V7.76365C393.312 6.98365 393.039 6.34404 392.473 5.80844C391.896 5.25724 391.256 4.99203 390.516 4.99203Z" fill="white"/>
<path d="M468.958 5.39764H427.654C426.925 5.39764 426.364 5.62644 425.887 6.12564C425.399 6.63524 425.163 7.20205 425.163 7.86765C425.163 8.58006 425.404 9.15206 425.897 9.62006C426.417 10.1089 426.973 10.3377 427.654 10.3377H445.61V58.4484C445.61 59.1712 445.872 59.7848 446.418 60.3204C447.546 61.4384 449.25 61.35 450.231 60.3412C450.751 59.8004 451.002 59.1816 451.002 58.4484V10.3325H468.958C469.687 10.3325 470.248 10.1037 470.731 9.60446C471.219 9.09486 471.455 8.52806 471.455 7.86765C471.455 7.20725 471.219 6.63524 470.731 6.12564C470.254 5.62644 469.687 5.39764 468.958 5.39764Z" fill="white"/>
<path d="M352.286 4.80483C350.854 4.20683 349.218 4.86723 348.614 6.28164L329.342 51.3971L310.07 6.28164C309.467 4.86723 307.825 4.20683 306.398 4.80483C304.971 5.40283 304.305 7.03564 304.908 8.44485L326.761 59.5976C327.202 60.622 328.22 61.2928 329.342 61.2928C330.465 61.2928 331.482 60.6272 331.923 59.5976L353.776 8.44485C354.379 7.03044 353.713 5.40283 352.286 4.80483Z" fill="#FA7F00"/>
<path d="M115.638 10.3325C116.299 10.3325 116.866 10.0881 117.375 9.58366C117.883 9.08446 118.13 8.51765 118.13 7.86245C118.13 7.20724 117.889 6.65084 117.375 6.14124C116.866 5.63683 116.299 5.39243 115.638 5.39243H82.329C81.6104 5.39243 80.9967 5.66284 80.4564 6.22444C79.9003 6.79644 79.6328 7.43085 79.6328 8.16405V58.0428C79.6328 58.7656 79.8951 59.3792 80.4354 59.9148C80.9757 60.4556 81.5947 60.7156 82.3238 60.7156H115.633C116.305 60.7156 116.882 60.4816 117.39 59.998C117.894 59.5248 118.13 58.9996 118.13 58.3444C118.13 57.6112 117.889 57.034 117.375 56.5244C116.866 56.0147 116.294 55.7755 115.638 55.7755H85.1249V35.5266H112.601C113.33 35.5266 113.892 35.2926 114.374 34.7934C114.867 34.2786 115.098 33.7274 115.098 33.0566C115.098 32.3338 114.862 31.7774 114.358 31.299C113.844 30.8154 113.273 30.5814 112.601 30.5814H85.1249V10.3325H115.638Z" fill="white"/>
<path d="M525.883 6.27644C525.447 5.25203 524.424 4.58123 523.302 4.58123C522.179 4.58123 521.162 5.24683 520.721 6.27644L498.868 57.4292C498.265 58.8436 498.931 60.4712 500.358 61.0692C501.769 61.662 503.426 61.012 504.03 59.5924L523.302 14.4769L542.579 59.5924C543.03 60.6532 544.069 61.2876 545.16 61.2876C545.527 61.2876 545.895 61.2148 546.251 61.064C547.678 60.466 548.339 58.8332 547.741 57.424L525.888 6.27124L525.883 6.27644Z" fill="white"/>
<path d="M47.6033 4.80483C46.1712 4.20683 44.5346 4.86723 43.9314 6.28164L24.6592 51.3971L5.38179 6.27644C4.77855 4.86203 3.13669 4.20163 1.7099 4.79963C0.283112 5.40284 -0.383074 7.03045 0.220165 8.44486L22.0732 59.5976C22.5138 60.622 23.5314 61.2928 24.654 61.2928C25.7765 61.2928 26.7942 60.6272 27.2348 59.5976L49.093 8.44486C49.6963 7.03045 49.0301 5.40284 47.6033 4.80483Z" fill="white"/>
<path d="M545.228 5.93844H543.77C543.623 5.93844 543.508 5.98524 543.429 6.07364C543.35 6.16724 543.314 6.27644 543.314 6.41164V9.97366C543.314 10.0829 543.35 10.1661 543.419 10.2233C543.487 10.2805 543.571 10.3117 543.67 10.3117C543.77 10.3117 543.854 10.2805 543.927 10.2233C544.001 10.1661 544.038 10.0829 544.038 9.97886V8.35645H544.845L545.989 10.1609C546.052 10.2597 546.141 10.3117 546.256 10.3117C546.351 10.3117 546.435 10.2805 546.513 10.2129C546.592 10.1453 546.629 10.0673 546.629 9.97886C546.629 9.92686 546.613 9.86966 546.576 9.81766L545.554 8.34605C545.758 8.32005 545.931 8.28885 546.083 8.23685C546.236 8.19005 546.372 8.11725 546.498 8.02885C546.624 7.94045 546.718 7.82085 546.781 7.67525C546.844 7.52965 546.875 7.35285 546.875 7.15005C546.875 6.73404 546.75 6.42724 546.498 6.22964C546.246 6.03204 545.821 5.93844 545.223 5.93844M546.068 7.41525C546.031 7.49845 545.984 7.56085 545.931 7.60765C545.879 7.65445 545.8 7.68565 545.711 7.71165C545.616 7.73765 545.527 7.75325 545.449 7.75845C545.365 7.76365 545.265 7.76885 545.139 7.76885H545.003C544.94 7.76885 544.877 7.76885 544.814 7.76885C544.751 7.76885 544.678 7.76885 544.594 7.76885H544.373C544.216 7.76885 544.106 7.76885 544.048 7.77405V6.54684H545.139C545.449 6.54684 545.695 6.58844 545.868 6.67164C546.041 6.75484 546.131 6.90564 546.131 7.12405C546.131 7.23845 546.11 7.33725 546.073 7.42045" fill="white"/>
<path d="M548.439 6.16724C548.066 5.55884 547.563 5.07523 546.923 4.72163C546.283 4.36803 545.59 4.18603 544.84 4.18603C544.09 4.18603 543.392 4.36283 542.752 4.72163C542.112 5.07523 541.609 5.55884 541.231 6.16724C540.859 6.77564 540.67 7.43605 540.67 8.14845C540.67 8.67886 540.78 9.18326 541 9.66686C541.221 10.1505 541.52 10.5665 541.892 10.9201C542.265 11.2737 542.71 11.5545 543.225 11.7625C543.739 11.9705 544.279 12.0745 544.84 12.0745C545.401 12.0745 545.936 11.9705 546.451 11.7625C546.965 11.5545 547.405 11.2737 547.778 10.9201C548.15 10.5665 548.444 10.1505 548.664 9.66686C548.884 9.18326 548.995 8.67886 548.995 8.14845C548.995 7.43605 548.811 6.78084 548.439 6.16724ZM547.772 9.80726C547.484 10.3013 547.08 10.6913 546.566 10.9669C546.052 11.2477 545.475 11.3881 544.84 11.3881C544.205 11.3881 543.623 11.2477 543.104 10.9669C542.59 10.6861 542.186 10.3013 541.892 9.80726C541.604 9.31326 541.457 8.76206 541.457 8.14845C541.457 7.53485 541.604 6.98365 541.892 6.48964C542.181 5.99564 542.585 5.61084 543.104 5.33003C543.623 5.04923 544.2 4.91403 544.84 4.91403C545.48 4.91403 546.052 5.05443 546.566 5.33003C547.08 5.60564 547.484 5.99564 547.772 6.48964C548.061 6.98365 548.208 7.53485 548.208 8.14845C548.208 8.76206 548.061 9.31326 547.772 9.80726Z" fill="white"/>
<path d="M256.098 9.56286V5.71484H262C262.755 5.71484 263.369 5.10643 263.369 4.35763V1.35721C263.369 0.608404 262.755 0 262 0H251.697C250.942 0 250.328 0.608404 250.328 1.35721V12.0225C250.328 12.7609 250.842 13.4109 251.577 13.6033C262.692 16.5361 269.621 27.2742 267.691 38.5894C266.165 47.5439 259.099 54.6783 250.108 56.3268C243.525 57.5384 236.842 55.8328 231.77 51.6519C226.687 47.4607 223.77 41.3143 223.77 34.7882C223.77 24.877 230.521 16.1669 240.194 13.6085C240.928 13.4161 241.442 12.7661 241.442 12.0277V1.35721C241.442 0.608404 240.834 0 240.078 0H229.776C229.021 0 228.407 0.608404 228.407 1.35721V4.36283C228.407 5.11163 229.021 5.72004 229.776 5.72004H235.677V9.57326C225.234 13.7333 218.477 23.5666 218.441 34.6998C218.393 49.1611 230.201 61.3968 244.763 61.9792C245.14 61.9948 245.523 62 245.901 62C253.019 62 259.728 59.3272 264.895 54.4079C270.34 49.2235 273.341 42.2555 273.341 34.7882C273.341 23.6082 266.579 13.7385 256.088 9.56286" fill="#FA7F00"/>
<path d="M232.425 28.3714C228.879 28.3714 226.304 31.1014 226.304 34.9078C226.645 34.2838 227.72 31.7306 231.297 31.7306C236.575 31.7306 243.53 39.9571 244.862 47.4087C244.862 37.6638 238.783 28.3662 232.425 28.3662V28.3714Z" fill="white"/>
<path d="M231.953 34.627C230.028 35.0118 229.315 37.409 229.315 38.6415C229.498 38.189 230.227 37.0294 231.764 36.5874C233.28 36.1558 237.235 36.4626 239.869 39.4839C237.555 35.9946 234.576 34.107 231.958 34.627H231.953Z" fill="white"/>
<path d="M259.634 28.3714C253.276 28.3714 247.197 37.6638 247.197 47.4139C248.524 39.9622 255.485 31.7358 260.762 31.7358C264.339 31.7358 265.409 34.289 265.756 34.913C265.756 31.1118 263.18 28.3766 259.634 28.3766V28.3714Z" fill="white"/>
<path d="M260.106 34.627C257.489 34.107 254.509 35.9894 252.196 39.4838C254.829 36.4626 258.779 36.1558 260.3 36.5874C261.837 37.0294 262.566 38.1942 262.75 38.6414C262.75 37.409 262.036 35.0066 260.111 34.627H260.106Z" fill="white"/>
<path d="M247.643 38.7194C248.34 37.1594 248.933 34.0342 248.933 29.6142C248.933 24.8562 247.915 19.6873 246.027 19.6873C244.138 19.6873 243.121 24.8562 243.121 29.6142C243.121 34.0342 243.714 37.1594 244.411 38.7194C243.666 32.7446 244.333 25.8338 246.027 25.8338C247.721 25.8338 248.387 32.7446 247.643 38.7194Z" fill="white"/>
</svg>
